<svg xmlns="http://www.w3.org/2000/svg" viewBox="0 0 960 600" font-family="Segoe UI, Arial, sans-serif">
  <rect width="960" height="600" fill="#f8fafc"/>

  <!-- SIDEBAR -->
  <rect x="0" y="0" width="220" height="600" fill="#ffffff" stroke="#e2e8f0"/>
  <rect x="20" y="20" width="36" height="36" rx="8" fill="#0066cc"/>
  <text x="66" y="35" font-size="13" fill="#0f172a" font-weight="bold">FisioCare Ayla</text>
  <text x="66" y="50" font-size="10" fill="#94a3b8">Panel interno</text>
  <line x1="0" y1="76" x2="220" y2="76" stroke="#e2e8f0"/>

  <g font-size="12">
    <rect x="12" y="92" width="196" height="32" rx="8" fill="#0066cc" opacity="0.1"/>
    <text x="28" y="112" fill="#0066cc" font-weight="bold">Panel</text>
    <text x="28" y="150" fill="#475569">Usuarios</text>
    <text x="28" y="188" fill="#475569">Fisioterapeutas</text>
    <text x="28" y="226" fill="#475569">Especialidades</text>
    <text x="28" y="264" fill="#475569">Pacientes</text>
    <text x="28" y="302" fill="#475569">Historiales</text>
    <text x="28" y="340" fill="#475569">Citas</text>
    <text x="28" y="378" fill="#475569">Roles</text>
  </g>

  <line x1="0" y1="500" x2="220" y2="500" stroke="#e2e8f0"/>
  <text x="28" y="530" font-size="12" fill="#475569">Mi Perfil</text>
  <text x="28" y="562" font-size="12" fill="#ef4444">Cerrar Sesión</text>

  <!-- MAIN -->
  <text x="248" y="48" font-size="22" fill="#0f172a" font-weight="bold">Panel Administrativo</text>
  <text x="248" y="68" font-size="12" fill="#64748b">Control total de la clínica</text>

  <g>
    <rect x="248" y="92" width="152" height="86" rx="12" fill="#ffffff" stroke="#e2e8f0"/>
    <text x="264" y="116" font-size="10" fill="#64748b">CITAS TOTALES</text>
    <text x="264" y="150" font-size="24" fill="#0f172a" font-weight="bold">1,248</text>

    <rect x="412" y="92" width="152" height="86" rx="12" fill="#ffffff" stroke="#e2e8f0"/>
    <text x="428" y="116" font-size="10" fill="#64748b">CITAS HOY</text>
    <text x="428" y="150" font-size="24" fill="#0066cc" font-weight="bold">18</text>

    <rect x="576" y="92" width="152" height="86" rx="12" fill="#ffffff" stroke="#e2e8f0"/>
    <text x="592" y="116" font-size="10" fill="#64748b">PENDIENTES</text>
    <text x="592" y="150" font-size="24" fill="#d97706" font-weight="bold">6</text>

    <rect x="740" y="92" width="152" height="86" rx="12" fill="#ffffff" stroke="#e2e8f0"/>
    <text x="756" y="116" font-size="10" fill="#64748b">FISIOTERAPEUTAS</text>
    <text x="756" y="150" font-size="24" fill="#0f172a" font-weight="bold">6</text>
  </g>

  <rect x="248" y="200" width="644" height="290" rx="12" fill="#ffffff" stroke="#e2e8f0"/>
  <text x="268" y="230" font-size="13" fill="#0f172a" font-weight="bold">Últimas Citas Agendadas</text>

  <g font-size="11" fill="#64748b">
    <text x="268" y="256">PACIENTE</text>
    <text x="480" y="256">FISIOTERAPEUTA</text>
    <text x="700" y="256">ESTADO</text>
  </g>
  <line x1="268" y1="266" x2="872" y2="266" stroke="#f1f5f9"/>

  <g font-size="12" fill="#334155">
    <text x="268" y="294">Laura Gómez</text>
    <text x="480" y="294">Carlos Martínez</text>
    <rect x="700" y="280" width="82" height="22" rx="11" fill="#dcfce7"/><text x="712" y="296" fill="#166534" font-size="10">Confirmada</text>

    <text x="268" y="334">Carlos Pérez</text>
    <text x="480" y="334">María López</text>
    <rect x="700" y="320" width="82" height="22" rx="11" fill="#fef3c7"/><text x="712" y="336" fill="#92400e" font-size="10">Pendiente</text>

    <text x="268" y="374">María Rodríguez</text>
    <text x="480" y="374">Juan García</text>
    <rect x="700" y="360" width="82" height="22" rx="11" fill="#dcfce7"/><text x="712" y="376" fill="#166534" font-size="10">Confirmada</text>
  </g>

  <text x="268" y="420" font-size="13" fill="#0f172a" font-weight="bold">Gestión del Sistema</text>
  <g font-size="11" fill="#ffffff">
    <rect x="268" y="434" width="140" height="38" rx="8" fill="#0066cc"/><text x="288" y="458">Usuarios</text>
    <rect x="418" y="434" width="140" height="38" rx="8" fill="#00a080"/><text x="438" y="458">Médicos</text>
    <rect x="568" y="434" width="140" height="38" rx="8" fill="#4f46e5"/><text x="588" y="458">Citas</text>
    <rect x="718" y="434" width="140" height="38" rx="8" fill="#475569"/><text x="738" y="458">Config.</text>
  </g>
</svg>
